<mxfile modified="2023-04-07T02:09:29.507Z" host="app.diagrams.net" agent="Mozilla/5.0 (Windows NT 10.0; Win64; x64) AppleWebKit/537.36 (KHTML, like Gecko) Chrome/111.0.0.0 Safari/537.36" etag="4KkuoCGFFb-TZ9NfM-hn" version="21.1.4" type="github">
  <diagram id="7gcUSTIZ7YSJ5vT40chW" name="Page-1">
    <mxGraphModel dx="1434" dy="1623" grid="1" gridSize="10" guides="1" tooltips="1" connect="1" arrows="1" fold="1" page="1" pageScale="1" pageWidth="1169" pageHeight="827" math="0" shadow="0">
      <root>
        <mxCell id="0" />
        <mxCell id="1" parent="0" />
        <mxCell id="3edXrB9TCwEOsHuTW_x6-7" value="zjh_develop" style="text;html=1;align=center;verticalAlign=middle;resizable=0;points=[];autosize=1;" parent="1" vertex="1">
          <mxGeometry x="81" y="102" width="90" height="30" as="geometry" />
        </mxCell>
        <mxCell id="3edXrB9TCwEOsHuTW_x6-8" value="test" style="text;html=1;align=center;verticalAlign=middle;resizable=0;points=[];autosize=1;strokeColor=none;fillColor=none;" parent="1" vertex="1">
          <mxGeometry x="291" y="102" width="40" height="30" as="geometry" />
        </mxCell>
        <mxCell id="3edXrB9TCwEOsHuTW_x6-9" value="master" style="text;html=1;align=center;verticalAlign=middle;resizable=0;points=[];autosize=1;strokeColor=none;fillColor=none;" parent="1" vertex="1">
          <mxGeometry x="451" y="102" width="60" height="30" as="geometry" />
        </mxCell>
        <mxCell id="3edXrB9TCwEOsHuTW_x6-10" value="zjh_develop" style="text;html=1;align=center;verticalAlign=middle;resizable=0;points=[];autosize=1;strokeColor=none;fillColor=none;" parent="1" vertex="1">
          <mxGeometry x="91" y="222" width="90" height="30" as="geometry" />
        </mxCell>
        <mxCell id="tF3tycBTyrRShLzIGi7t-22" value="" style="edgeStyle=orthogonalEdgeStyle;rounded=0;orthogonalLoop=1;jettySize=auto;html=1;" edge="1" parent="1" source="3edXrB9TCwEOsHuTW_x6-11" target="3edXrB9TCwEOsHuTW_x6-8">
          <mxGeometry relative="1" as="geometry" />
        </mxCell>
        <mxCell id="3edXrB9TCwEOsHuTW_x6-11" value="zjh_test" style="text;html=1;align=center;verticalAlign=middle;resizable=0;points=[];autosize=1;strokeColor=none;fillColor=none;" parent="1" vertex="1">
          <mxGeometry x="286" y="222" width="60" height="30" as="geometry" />
        </mxCell>
        <mxCell id="3edXrB9TCwEOsHuTW_x6-16" value="2" style="endArrow=classic;html=1;rounded=0;entryX=0.543;entryY=1.033;entryDx=0;entryDy=0;entryPerimeter=0;" parent="1" target="3edXrB9TCwEOsHuTW_x6-7" edge="1">
          <mxGeometry width="50" height="50" relative="1" as="geometry">
            <mxPoint x="129" y="212" as="sourcePoint" />
            <mxPoint x="321" y="162" as="targetPoint" />
          </mxGeometry>
        </mxCell>
        <mxCell id="3edXrB9TCwEOsHuTW_x6-19" value="2.1&amp;nbsp; or&amp;nbsp; b1" style="endArrow=classic;html=1;rounded=0;exitX=0.525;exitY=1.033;exitDx=0;exitDy=0;exitPerimeter=0;" parent="1" source="3edXrB9TCwEOsHuTW_x6-8" edge="1">
          <mxGeometry x="0.0124" width="50" height="50" relative="1" as="geometry">
            <mxPoint x="311" y="142" as="sourcePoint" />
            <mxPoint x="311" y="212" as="targetPoint" />
            <mxPoint as="offset" />
          </mxGeometry>
        </mxCell>
        <mxCell id="3edXrB9TCwEOsHuTW_x6-22" value="3" style="curved=1;endArrow=classic;html=1;rounded=0;" parent="1" edge="1">
          <mxGeometry width="50" height="50" relative="1" as="geometry">
            <mxPoint x="131" y="102" as="sourcePoint" />
            <mxPoint x="471" y="92" as="targetPoint" />
            <Array as="points">
              <mxPoint x="141" y="72" />
              <mxPoint x="171" y="62" />
              <mxPoint x="241" y="52" />
              <mxPoint x="361" y="52" />
              <mxPoint x="441" y="52" />
            </Array>
          </mxGeometry>
        </mxCell>
        <mxCell id="3edXrB9TCwEOsHuTW_x6-23" value="远程zjh_xDebug" style="text;html=1;align=center;verticalAlign=middle;resizable=0;points=[];autosize=1;strokeColor=none;fillColor=none;" parent="1" vertex="1">
          <mxGeometry x="441" y="212" width="110" height="30" as="geometry" />
        </mxCell>
        <mxCell id="3edXrB9TCwEOsHuTW_x6-29" value="b2" style="endArrow=classic;html=1;rounded=0;exitX=0;exitY=0.367;exitDx=0;exitDy=0;exitPerimeter=0;entryX=1.017;entryY=0.867;entryDx=0;entryDy=0;entryPerimeter=0;" parent="1" source="3edXrB9TCwEOsHuTW_x6-45" edge="1" target="3edXrB9TCwEOsHuTW_x6-11">
          <mxGeometry x="0.0041" width="50" height="50" relative="1" as="geometry">
            <mxPoint x="346" y="242" as="sourcePoint" />
            <mxPoint x="346" y="310" as="targetPoint" />
            <mxPoint as="offset" />
          </mxGeometry>
        </mxCell>
        <mxCell id="3edXrB9TCwEOsHuTW_x6-34" value="b" style="curved=1;endArrow=classic;html=1;rounded=0;entryX=1.025;entryY=0.533;entryDx=0;entryDy=0;entryPerimeter=0;" parent="1" target="3edXrB9TCwEOsHuTW_x6-8" edge="1">
          <mxGeometry x="-0.003" width="50" height="50" relative="1" as="geometry">
            <mxPoint x="451" y="212" as="sourcePoint" />
            <mxPoint x="461" y="172" as="targetPoint" />
            <Array as="points">
              <mxPoint x="461" y="222" />
              <mxPoint x="411" y="172" />
            </Array>
            <mxPoint as="offset" />
          </mxGeometry>
        </mxCell>
        <mxCell id="3edXrB9TCwEOsHuTW_x6-36" value="2" style="endArrow=classic;html=1;rounded=0;exitX=1.057;exitY=0.5;exitDx=0;exitDy=0;exitPerimeter=0;" parent="1" source="3edXrB9TCwEOsHuTW_x6-7" target="3edXrB9TCwEOsHuTW_x6-8" edge="1">
          <mxGeometry width="50" height="50" relative="1" as="geometry">
            <mxPoint x="161" y="122" as="sourcePoint" />
            <mxPoint x="211" y="72" as="targetPoint" />
          </mxGeometry>
        </mxCell>
        <mxCell id="3edXrB9TCwEOsHuTW_x6-37" value="2.2" style="endArrow=classic;html=1;rounded=0;verticalAlign=middle;horizontal=1;entryX=-0.05;entryY=0.567;entryDx=0;entryDy=0;entryPerimeter=0;" parent="1" target="3edXrB9TCwEOsHuTW_x6-11" edge="1">
          <mxGeometry width="50" height="50" relative="1" as="geometry">
            <mxPoint x="180" y="237" as="sourcePoint" />
            <mxPoint x="260" y="280" as="targetPoint" />
            <mxPoint as="offset" />
          </mxGeometry>
        </mxCell>
        <mxCell id="3edXrB9TCwEOsHuTW_x6-39" value="&lt;font color=&quot;#ff3333&quot; style=&quot;font-size: 17px;&quot;&gt;日常开发流程&lt;/font&gt;&lt;font color=&quot;#ff0000&quot;&gt;（可对照流程图）&lt;/font&gt;&lt;font color=&quot;#ff3333&quot; style=&quot;font-size: 17px;&quot;&gt;&lt;br&gt;&lt;/font&gt;1.初始化分支 ，从远程 master 分支 pull 到本地 zjh_develop 分支&lt;br&gt;&lt;br&gt;2.本地开发完成，将 zjh_develop 分支提交远程并合并远程 test 分支&lt;br&gt;（若执行操作 2 时冲突，则进行 2.1 ：下拉远程 test 分支至 本地&amp;nbsp;zjh_test 分支，&lt;br&gt;&amp;nbsp;2.2 ：合并本地 zjh_develop&amp;nbsp;分支至本地&amp;nbsp;zjh_test分支，解决冲突提交远程至 test 分支，&lt;br&gt;再次进行远程 zjh_develop&amp;nbsp;分支合并远程test操作）&lt;br&gt;&lt;br&gt;3.测试完成，合并远程 zjh_develop&amp;nbsp;分支，至远程 master 分支，完成上线操作。&lt;br&gt;&lt;br&gt;注意：日常开发过程可采用功能分支命名形式（zjh_develop_userInfo）进行开发，&lt;br&gt;以解决上一需求未上线，另外的需求需要开发" style="text;html=1;align=left;verticalAlign=middle;resizable=0;points=[];autosize=1;strokeColor=none;fillColor=none;" parent="1" vertex="1">
          <mxGeometry x="760" y="-26" width="490" height="190" as="geometry" />
        </mxCell>
        <mxCell id="3edXrB9TCwEOsHuTW_x6-44" value="&lt;font color=&quot;#ff3333&quot; style=&quot;font-size: 17px;&quot;&gt;若线上出现bug&lt;/font&gt;&lt;font color=&quot;#ff3333&quot;&gt;（可对照流程图）&lt;/font&gt;&lt;font color=&quot;#ff3333&quot; style=&quot;font-size: 17px;&quot;&gt;&lt;br&gt;&lt;/font&gt;a.初始化分支 ，从远程 master 分支 pull 到本地 zjh_xDebug&amp;nbsp;分支&lt;br&gt;&lt;br&gt;b.本地开发完成，将 zjh_xDebug 分支提交远程并合并远程 test 分支&lt;br&gt;（若执行操作&amp;nbsp; b 时冲突，则进行 b1：下拉远程 test 分支至 本地&amp;nbsp;zjh_test 分支，&lt;br&gt;&amp;nbsp;b2 ：合并本地 zjh_xdebug&amp;nbsp;分支至 本地&amp;nbsp;zjh_test 分支，解决冲突提交远程至 test 分支，&lt;br&gt;再次进行远程 zjh_xDebug&amp;nbsp;分支合并远程 test 操作）&lt;br&gt;&lt;br&gt;.c.测试完成，合并远程 zjh_xDebug 分支，至远程 master 分支，完成上线操作。" style="text;html=1;align=left;verticalAlign=middle;resizable=0;points=[];autosize=1;strokeColor=none;fillColor=none;" parent="1" vertex="1">
          <mxGeometry x="760" y="190" width="490" height="150" as="geometry" />
        </mxCell>
        <mxCell id="3edXrB9TCwEOsHuTW_x6-45" value="zjh_xDebug" style="text;html=1;align=center;verticalAlign=middle;resizable=0;points=[];autosize=1;strokeColor=none;fillColor=none;" parent="1" vertex="1">
          <mxGeometry x="446" y="306" width="90" height="30" as="geometry" />
        </mxCell>
        <mxCell id="3edXrB9TCwEOsHuTW_x6-46" value="" style="curved=1;endArrow=classic;html=1;rounded=0;entryX=1.063;entryY=0.533;entryDx=0;entryDy=0;entryPerimeter=0;" parent="1" target="3edXrB9TCwEOsHuTW_x6-45" edge="1">
          <mxGeometry width="50" height="50" relative="1" as="geometry">
            <mxPoint x="511" y="122" as="sourcePoint" />
            <mxPoint x="561" y="72" as="targetPoint" />
            <Array as="points">
              <mxPoint x="561" y="122" />
              <mxPoint x="601" y="232" />
              <mxPoint x="591" y="272" />
            </Array>
          </mxGeometry>
        </mxCell>
        <mxCell id="3edXrB9TCwEOsHuTW_x6-50" value="a" style="edgeLabel;html=1;align=center;verticalAlign=middle;resizable=0;points=[];" parent="3edXrB9TCwEOsHuTW_x6-46" vertex="1" connectable="0">
          <mxGeometry x="0.056" y="-2" relative="1" as="geometry">
            <mxPoint as="offset" />
          </mxGeometry>
        </mxCell>
        <mxCell id="3edXrB9TCwEOsHuTW_x6-47" value="b" style="endArrow=classic;html=1;rounded=0;entryX=0.417;entryY=1;entryDx=0;entryDy=0;entryPerimeter=0;exitX=0.513;exitY=-0.133;exitDx=0;exitDy=0;exitPerimeter=0;" parent="1" source="3edXrB9TCwEOsHuTW_x6-45" target="3edXrB9TCwEOsHuTW_x6-23" edge="1">
          <mxGeometry width="50" height="50" relative="1" as="geometry">
            <mxPoint x="494" y="312" as="sourcePoint" />
            <mxPoint x="541" y="262" as="targetPoint" />
          </mxGeometry>
        </mxCell>
        <mxCell id="3edXrB9TCwEOsHuTW_x6-48" value="c" style="endArrow=classic;html=1;rounded=0;entryX=0.583;entryY=1.067;entryDx=0;entryDy=0;entryPerimeter=0;" parent="1" target="3edXrB9TCwEOsHuTW_x6-9" edge="1">
          <mxGeometry x="-0.0019" width="50" height="50" relative="1" as="geometry">
            <mxPoint x="491" y="212" as="sourcePoint" />
            <mxPoint x="461" y="122" as="targetPoint" />
            <mxPoint as="offset" />
          </mxGeometry>
        </mxCell>
        <mxCell id="3edXrB9TCwEOsHuTW_x6-53" value="" style="curved=1;endArrow=classic;html=1;rounded=0;entryX=0.589;entryY=1.067;entryDx=0;entryDy=0;entryPerimeter=0;" parent="1" target="3edXrB9TCwEOsHuTW_x6-10" edge="1">
          <mxGeometry width="50" height="50" relative="1" as="geometry">
            <mxPoint x="519" y="117" as="sourcePoint" />
            <mxPoint x="138.96000000000004" y="152.99" as="targetPoint" />
            <Array as="points">
              <mxPoint x="569" y="117" />
              <mxPoint x="740" y="237" />
              <mxPoint x="510" y="447" />
            </Array>
          </mxGeometry>
        </mxCell>
        <mxCell id="3edXrB9TCwEOsHuTW_x6-55" value="1" style="edgeLabel;html=1;align=center;verticalAlign=middle;resizable=0;points=[];" parent="3edXrB9TCwEOsHuTW_x6-53" vertex="1" connectable="0">
          <mxGeometry x="0.0223" y="-29" relative="1" as="geometry">
            <mxPoint x="1" as="offset" />
          </mxGeometry>
        </mxCell>
        <mxCell id="tF3tycBTyrRShLzIGi7t-1" value="&lt;div style=&quot;text-align: left;&quot;&gt;&lt;span style=&quot;font-size: 17px; color: rgb(255, 51, 51); background-color: initial;&quot;&gt;版本开发流程&lt;/span&gt;&lt;/div&gt;&lt;font color=&quot;#ff3333&quot; style=&quot;font-size: 17px;&quot;&gt;&lt;div style=&quot;text-align: left;&quot;&gt;&lt;span style=&quot;background-color: initial; color: rgb(0, 0, 0); font-size: 12px;&quot;&gt;0.开发组长在gitlab新建版本分支develop_1.1.0&lt;/span&gt;&lt;/div&gt;&lt;/font&gt;&lt;div style=&quot;text-align: left;&quot;&gt;&lt;br&gt;&lt;/div&gt;&lt;div style=&quot;text-align: left;&quot;&gt;&lt;span style=&quot;background-color: initial;&quot;&gt;1.各开发人员初始化分支 ，从远程 master 分支 pull 到本地，分支命名如：zjh_develop_1.1.0&amp;nbsp;&lt;/span&gt;&lt;/div&gt;&lt;div style=&quot;text-align: left;&quot;&gt;&lt;br&gt;&lt;/div&gt;&lt;div style=&quot;text-align: left;&quot;&gt;&lt;span style=&quot;background-color: initial;&quot;&gt;2.本地开发完成，将&amp;nbsp; zjh_develop_1.1.0 分支提交远程合并远程 develop_1.1.0&amp;nbsp;&lt;/span&gt;&lt;/div&gt;&lt;div style=&quot;text-align: left;&quot;&gt;&lt;br&gt;&lt;/div&gt;&lt;div style=&quot;text-align: left;&quot;&gt;&lt;span style=&quot;background-color: initial;&quot;&gt;3.将远程 develop_1.1.0 分支合并远程 test 分支&lt;/span&gt;&lt;/div&gt;&lt;div style=&quot;text-align: left;&quot;&gt;&lt;br&gt;&lt;/div&gt;&lt;div style=&quot;text-align: left;&quot;&gt;&lt;span style=&quot;background-color: initial;&quot;&gt;3.测试完成，合并远程 develop_1.1.0 分支，至远程 master 分支，完成上线操作。&lt;/span&gt;&lt;/div&gt;" style="text;html=1;align=center;verticalAlign=middle;resizable=0;points=[];autosize=1;strokeColor=none;fillColor=none;" vertex="1" parent="1">
          <mxGeometry x="160" y="440" width="520" height="170" as="geometry" />
        </mxCell>
        <mxCell id="tF3tycBTyrRShLzIGi7t-24" value="&lt;div style=&quot;&quot;&gt;&lt;span style=&quot;font-size: 17px; background-color: initial;&quot;&gt;&lt;font color=&quot;#ff0000&quot;&gt;分支命名方式&lt;/font&gt;&lt;/span&gt;&lt;/div&gt;&lt;div style=&quot;&quot;&gt;&lt;span style=&quot;background-color: initial;&quot;&gt;日常分支命名：开发人员姓名首字母_develop，例：zjh_develop&lt;/span&gt;&lt;/div&gt;&lt;div style=&quot;&quot;&gt;&lt;span style=&quot;background-color: initial;&quot;&gt;&lt;br&gt;&lt;/span&gt;&lt;/div&gt;功能分支命名：开发人员姓名首字母_develop_功能名称，例：zjh_develop_userInfo&lt;br&gt;&lt;br&gt;版本分支命名：开发人员姓名首字母_develop_2.2.0，例：zjh_develop_2.2.0&lt;br&gt;&lt;br&gt;bug分支命名：开发人员姓名首字母_xDebug，例：zjh_xDebug" style="text;html=1;align=left;verticalAlign=middle;resizable=0;points=[];autosize=1;strokeColor=none;fillColor=none;" vertex="1" parent="1">
          <mxGeometry x="750" y="480" width="470" height="130" as="geometry" />
        </mxCell>
      </root>
    </mxGraphModel>
  </diagram>
</mxfile>
